
<svg xmlns="http://www.w3.org/2000/svg" xml:space="preserve" width="11.6929in" height="4.33071in" version="1.1" style="shape-rendering:geometricPrecision; text-rendering:geometricPrecision; image-rendering:optimizeQuality; fill-rule:evenodd; clip-rule:evenodd"
viewBox="0 0 11693 4331"
 xmlns:xlink="http://www.w3.org/1999/xlink">
 <defs>
  <style type="text/css">
   <![CDATA[
    .fil0 {fill:white}
   ]]>
  </style>
 </defs>
 <g id="Layer_x0020_1">
  <metadata id="CorelCorpID_0Corel-Layer"/>
  <g id="_584442960">
   <g>
    <path class="fil0" d="M4873 1163l0 -403 1712 0c87,0 165,22 236,67 73,45 127,106 163,183 35,82 44,164 27,249 -19,83 -60,154 -125,215l-1684 1390c-24,22 -21,32 10,32l1799 0 0 403 -1799 0c-86,0 -165,-22 -237,-67 -71,-44 -125,-105 -160,-183 -37,-81 -46,-164 -28,-248 17,-83 59,-155 125,-216l1680 -1387c14,-14 22,-24 22,-29 -1,-4 -13,-6 -35,-6l-1706 0z"/>
    <polygon class="fil0" points="7730,1850 9022,1850 9022,2210 7730,2210 7730,2898 9086,2898 9086,3299 7328,3299 7328,762 9086,762 9086,1163 7730,1163 "/>
    <path class="fil0" d="M9699 760l717 2099c9,25 23,37 43,37 19,0 33,-12 42,-37l719 -2099 425 0 -764 2229c-31,93 -85,167 -160,223 -78,58 -165,87 -262,87 -97,0 -185,-29 -263,-87 -74,-56 -128,-130 -160,-223l-762 -2229 425 0z"/>
   </g>
   <path class="fil0" d="M3686 865l-3 2 -3064 2009c68,89 151,163 240,218l1174 727 1174 -727c123,-76 235,-189 313,-326 70,-122 113,-264 113,-417l0 -280 -676 449 -372 -244 1046 -695 2 0 385 0 0 234 0 536c0,222 -62,428 -164,606 -111,194 -269,354 -444,463l-1275 789 -102 63 -102 -63 -1275 -789c-175,-109 -333,-269 -444,-463 -40,-70 -74,-144 -100,-222l195 -134c17,-17 34,-31 50,-41l2877 -1885c-110,-43 -221,-81 -334,-113 -279,-78 -569,-120 -867,-120 -298,0 -588,42 -867,120 -254,72 -499,174 -733,302l0 579 442 -289 372 244 -814 533 -385 0 0 -1176 0 -108 95 -57c292,-173 600,-307 920,-397 313,-88 638,-134 970,-134 332,0 657,46 970,134 320,90 628,224 920,397l95 57 -332 218z"/>
  </g>
 </g>
</svg>
